PathFileType	4	(X/Y/Z)	T1_P2_Vision_NoMovement_0_0-733.trc
DataRate	CameraRate	NumFrames	NumMarkers	Units	OrigDataRate	OrigDataStartFrame	OrigNumFrames
60	60	7	27	m	60	0	733
Frame#	Time	RHip			RKnee			RAnkle			RBigToe			RSmallToe			RHeel			LHip			LKnee			LAnkle			LBigToe			LSmallToe			LHeel			Neck			Head			Nose			RShoulder			RElbow			RWrist			RThumb			RIndex			RPinky			LShoulder			LElbow			LWrist			LThumb			LIndex			LPinky		
		X1	Y1	Z1	X2	Y2	Z2	X3	Y3	Z3	X4	Y4	Z4	X5	Y5	Z5	X6	Y6	Z6	X7	Y7	Z7	X8	Y8	Z8	X9	Y9	Z9	X10	Y10	Z10	X11	Y11	Z11	X12	Y12	Z12	X13	Y13	Z13	X14	Y14	Z14	X15	Y15	Z15	X16	Y16	Z16	X17	Y17	Z17	X18	Y18	Z18	X19	Y19	Z19	X20	Y20	Z20	X21	Y21	Z21	X22	Y22	Z22	X23	Y23	Z23	X24	Y24	Z24	X25	Y25	Z25	X26	Y26	Z26	X27	Y27	Z27
1	0.0166666666666666	436.80282501076954	3697.6898631874024	636.3704118649172	843.4547651256523	3764.7776470325584	654.7468943757839	1208.9823837124577	3714.5256625077627	654.2493182759589	1290.3244057835218	3642.3944210516293	648.8739182985903	1289.3078349980624	3685.2398820937724	603.6449351344103	1290.2102089047662	3795.846603413015	738.9969511698013	454.7280936987205	3631.093567128759	851.6246088523269	848.6243551209193	3614.0019846944183	844.423682334183	1236.486473479316	3673.000074993619	852.1707249375384	1300.915730890973	3530.3367251634904	792.4341523705281	1283.4575202381084	3537.1174590162036	844.5137425967915	1258.2851032591047	3706.480548560421	857.22623055281	-126.2312335343207	3610.1225235951506	737.5149445896617	-391.3746903198548	3555.9969078320432	712.8141161816968	-241.77474501547712	3426.384786125078	675.4064982823792	-49.56497930480855	3643.561736385744	563.2238397223136	181.55528704247274	3783.5950717595665	517.1450220133353	231.63196297929403	3492.820930444408	531.2758931566811	224.0034376979092	3406.2786046347155	628.5300477186476	258.2089593324077	3402.276517414114	647.0015234321693	334.90623314007325	3429.6092220249357	634.9391132981601	-40.31480550652762	3548.8589234157716	890.2707198384759	192.35441701100046	3518.0845509356195	969.6867968473606	262.592237679259	3386.4841977859396	737.0113422855322	237.51841736352443	3416.088947142086	655.8956281341988	282.5822070021757	3398.738165942759	621.270353824974	343.8469152299925	3444.3942676639963	654.9284552235634
2	0.0333333333333333	436.35304180560354	3695.4704984235113	635.5512734231983	843.439540441892	3763.4944852567273	657.8818731142651	1210.64638145462	3722.847159003932	659.9974629219432	1294.7039051130525	3647.4165212868274	653.1386054966549	1289.237454878972	3685.4864202471663	603.9270563425191	1289.7971359905548	3802.404564962695	741.6571982640144	454.6598515130376	3631.0295166381106	851.5828368031221	848.6559013065403	3614.2382891485486	844.4540120875495	1235.346215927592	3675.307561316778	853.4554360311762	1304.9769752147092	3542.808221526413	796.525411298616	1285.6387482372281	3537.8760728904126	846.3838885933659	1259.8496846167473	3706.838937544775	857.548401438916	-126.20829921175354	3610.151721490808	737.5257683813924	-391.33840717158466	3556.115252441527	712.8494874523057	-239.1199848538475	3429.1753212151507	675.4576142807899	-52.04209562861743	3656.5721016512043	572.804804477517	179.2687295057882	3782.905015158847	516.7767945100115	234.4200419822782	3503.568499598916	536.1630888518598	223.63481779040922	3405.83720270292	624.8586044932337	256.33129089849876	3409.3655739835253	649.6193206991836	333.47238955968965	3430.702279232953	632.3925045584322	-40.70732079394954	3544.9862701048933	886.698275267435	192.51948567059708	3519.7413419949607	968.5317143225927	260.3880191433152	3394.8175168418493	741.2908916948418	239.17252519128283	3427.4242257181636	662.8247188934813	279.09733023031447	3408.0229857554295	626.3755892255651	345.1687111417068	3445.8775992878564	655.5379355450929
3	0.05	436.5554406095888	3694.0538081796803	634.9740473667164	842.9805266518028	3760.8862286639883	659.1676367145229	1210.5527346019994	3726.8211627900046	662.6068521623148	1296.3900696248818	3649.378462330473	654.7700260501559	1289.2173548040464	3685.7309202627607	604.1489068365898	1290.7045740403112	3809.5794810320103	744.1736352958808	454.64433222749847	3630.9988599255626	851.5625566216831	848.7003021841078	3614.4199998192344	844.4988566094568	1234.4106789301854	3677.2418344440603	854.5517025149393	1307.7639349141955	3551.602672675754	800.3394087345675	1287.4375188125134	3538.6482499102794	847.2141281554203	1261.716775452863	3707.549123940261	857.9734960027685	-126.19196329215734	3610.1977634334903	737.5512870394748	-391.32965214197105	3556.2402481230993	712.9139240221698	-237.53764135097452	3429.928642144894	673.2654239260095	-53.622686819953046	3662.62132754225	577.1509884634934	178.66980801545273	3782.8297010169613	516.7114249022812	236.70758043483616	3510.285014560071	539.2493354169803	223.47136271743133	3405.626878517101	622.8623188408976	255.66225715868072	3415.4688259908276	652.9177842979656	332.1749985765727	3431.912501837734	631.2428365606858	-40.30135205501428	3544.155017974904	886.1137098029037	192.57412621648103	3521.282990254246	967.3990203430105	259.57491608309084	3400.195343180151	744.0283276847351	240.38551234304032	3433.994411816335	666.5578518797818	277.13876915429466	3413.354678320008	629.2803562326817	346.69323437843343	3449.8523465441604	656.9578831844507
4	0.0666666666666666	437.7118858454974	3693.6929450553434	634.5639503359668	841.9877774998762	3756.7958094270143	658.0974762765312	1209.0124193443214	3726.1120060831618	661.8396550802863	1295.2860192353965	3647.70676359134	653.3114166785268	1289.2420698069843	3685.8892436661718	604.2441427202697	1292.3139399575764	3815.4036342890813	745.9629247656836	454.698236237047	3631.009986807591	851.5613594623974	848.7460123623596	3614.586018264856	844.5762499644869	1234.0482262524881	3678.045468380635	855.0244947766356	1309.8279728084788	3557.048935764851	804.2601170898133	1288.094681606219	3539.0112779381134	847.3162365897556	1263.7048887280907	3708.52270672111	858.4572589214683	-126.1806147846689	3610.2480530120047	737.5845368482742	-391.35334641884316	3556.3543408988075	712.9996999706664	-237.06573066731127	3427.643307593398	668.9282712356425	-54.24871769716871	3660.882640962588	575.6256404292569	179.66519733195184	3783.3148122449184	516.9094995684995	238.04898336399253	3512.491014140946	540.3019430946788	223.51741159219478	3405.6968386026474	622.8753831734248	256.331145209359	3419.4205774250113	655.8191759503361	331.3371519756654	3432.8929385358506	631.3637584971078	-38.88373602864931	3545.041971147193	887.3643290323647	192.2747330435831	3522.12922867635	966.4946158209412	260.0168891524055	3402.3258010961886	745.0560791144433	240.68185246565702	3434.75136608422	666.2804124090524	277.15530894549784	3414.494596400702	629.8202888938533	347.9727122152385	3454.5184416751204	658.5320607398046
5	0.0833333333333333	439.33267909980736	3693.869860066376	633.9376996638064	840.9558292255991	3753.186774214745	655.6388733227371	1208.0050480043874	3724.601645888995	660.6337525166472	1293.721404174272	3645.257962819265	651.2156214374626	1289.2864501466488	3685.915370255029	604.2055731660532	1293.0065881164805	3817.417306027942	746.5095687057752	454.76404330794435	3631.0252654936594	851.5595184679116	848.7435339545425	3614.75325354332	844.6628506171655	1234.2517575704287	3677.6469281204327	854.8197334282239	1311.4708149125076	3560.2228960767284	807.5016004255563	1287.1925648830388	3538.694983827116	847.307243716004	1264.6771012129389	3709.055921763353	858.7331765410152	-126.16748286046467	3610.27405896901	737.60519553922	-391.39516982295515	3556.409724944203	713.0668739820399	-237.10447097364502	3423.970881346646	664.945564658493	-54.35680444759363	3656.703001066911	572.3111764835661	180.91954283475891	3783.8271740781533	517.1402173063783	238.33857942225674	3512.2578297703644	540.229165114522	223.53767514838574	3405.8732463253214	623.927180089542	257.6240240801914	3420.8034094902755	656.978540339486	331.13298496326854	3433.2611468068085	631.7614252330192	-37.18412203325766	3545.376711377837	888.1671074360984	191.5042327088027	3521.902214735684	965.9874511349806	260.6139728617398	3402.594348465331	745.1205132464469	240.06585155473076	3432.119859260197	663.9364070132091	278.5241169029093	3413.82766733284	629.301424250003	348.55084382016906	3456.7846336605376	659.397918838067
6	0.1	440.4565928225955	3693.998850001951	633.0915655481563	840.4851306713878	3752.2565226564966	653.3568498266645	1208.6589456857203	3725.1080888570277	661.0807368845244	1293.7553676156208	3645.2084595571787	651.1681426276936	1289.3263150540718	3685.8571169031256	604.0936787817718	1292.4696161398747	3817.108816407954	746.3890259826399	454.6673133490545	3630.925058726269	851.5177282282677	848.6173727431939	3614.664416661425	844.5952851669282	1234.427851477005	3677.1486745694033	854.5622029874262	1311.6634538137791	3560.573310216383	808.3453461364043	1285.3672991634257	3538.079625098733	846.9689196361829	1263.490191393411	3708.5246253019486	858.4985122125834	-126.15845527998016	3610.268804124652	737.6070120217252	-391.4301083476697	3556.371084590031	713.0762606908722	-237.22661063139668	3421.731494414521	663.1636975817878	-54.27480422374043	3655.5970346528197	571.4557140290767	181.55594306770774	3783.965834339275	517.3843362277479	237.7211521454884	3511.433442354615	539.8639603427793	223.16576750737477	3405.8547901396014	624.5392762932712	258.7391382669522	3419.9804237187795	656.1096916322957	331.46565773034877	3432.952285860877	631.7739398067986	-36.45749766378367	3545.3838604677267	888.3601863194483	190.49633033200692	3520.8222614885876	965.929172621089	261.1156577269949	3402.3507375825184	744.9750113088705	239.08102581689943	3427.838512530281	661.5026983806927	280.50759067388833	3413.1688023423567	628.7966344582455	348.3778335620451	3455.2184871447434	659.6524634315731
7	0.1166666666666666	440.5106625035578	3693.6333087814205	632.5992733644332	840.7732489411846	3754.5320397031355	652.4321149147189	1209.917459904118	3725.9845998311976	661.7514588725688	1295.1697577136606	3647.4688133290206	653.0877556197999	1289.3259073349766	3685.7716364277057	603.9820285121391	1291.6047545013294	3817.797315218172	746.5902363226533	454.1751707337537	3630.5229604531205	851.3652834733113	848.3726435438728	3613.7217760051703	844.0414930289969	1234.1893008502848	3677.2813247857766	854.6567307108895	1310.5145350950577	3558.9146227063484	807.1817130919216	1283.8682503543982	3537.711997908193	846.0582637025166	1260.9101438335886	3707.1965069503635	857.7971103648887	-126.1780605805682	3610.267461398233	737.6117014474179	-391.4414264813664	3556.2846405373252	713.0359119022356	-237.29700432013183	3421.0629621914995	662.8645626767338	-54.18400679689965	3657.212714944246	572.7430024139949	181.6508305109436	3783.700620480831	517.89128635315	236.49060341831424	3510.7485179550713	539.5605857994026	222.26142351192863	3405.4833926301735	623.9601605545897	259.63245712247635	3418.0509630627885	654.141383467545	332.112106915923	3432.165587643196	631.3487244766279	-37.29449169059707	3546.1413343459276	888.7590399705535	189.45390967782123	3519.239517139074	966.2157614022307	261.9822971850665	3402.331352426506	745.0140076536147	238.17149636841305	3421.602079641161	659.3852314882093	282.50235213984524	3412.7420458513825	628.6453313878554	347.49943684805254	3449.8559209094583	659.789094955999
